PathFileType	4	(X/Y/Z)	T1_P2_NoVision_NoMovement_0_0-723.trc
DataRate	CameraRate	NumFrames	NumMarkers	Units	OrigDataRate	OrigDataStartFrame	OrigNumFrames
60	60	7	27	m	60	271	723
Frame#	Time	RHip			RKnee			RAnkle			RBigToe			RSmallToe			RHeel			LHip			LKnee			LAnkle			LBigToe			LSmallToe			LHeel			Neck			Head			Nose			RShoulder			RElbow			RWrist			RThumb			RIndex			RPinky			LShoulder			LElbow			LWrist			LThumb			LIndex			LPinky		
		X1	Y1	Z1	X2	Y2	Z2	X3	Y3	Z3	X4	Y4	Z4	X5	Y5	Z5	X6	Y6	Z6	X7	Y7	Z7	X8	Y8	Z8	X9	Y9	Z9	X10	Y10	Z10	X11	Y11	Z11	X12	Y12	Z12	X13	Y13	Z13	X14	Y14	Z14	X15	Y15	Z15	X16	Y16	Z16	X17	Y17	Z17	X18	Y18	Z18	X19	Y19	Z19	X20	Y20	Z20	X21	Y21	Z21	X22	Y22	Z22	X23	Y23	Z23	X24	Y24	Z24	X25	Y25	Z25	X26	Y26	Z26	X27	Y27	Z27
272	4.533333333333333	460.84884978698625	3650.1192059631626	536.13157194288	851.2432007795725	3683.222849318682	533.5128554199907	1265.7075838209598	3796.5242290262527	630.6996201047665	1316.8334310151092	3609.9975195642364	550.2958635756003	1317.3950226673567	3697.0736648345232	520.244197259287	1289.130862376839	3756.0187722466267	628.2213273452095	456.6151759226613	3528.898522588545	728.8865916735701	869.7541186274699	3562.2774319347886	738.5977394052976	1238.8728394444172	3600.7166218517414	722.7628069433639	1310.9485260025276	3501.2658919035694	658.118666395052	1271.0753246691354	3444.472990423241	698.8684134602909	1274.9896226763335	3619.7426264774945	712.1241706789638	-104.68771324031329	3510.9693237411134	604.3963654095094	-359.02504377428363	3408.5974378116443	535.5312150971228	-221.05079703893932	3387.1036397517896	513.5292227127807	-33.20561190393248	3686.5417505422374	488.26539295468683	198.58272275334824	3693.940696498315	419.5876778442028	441.85179547408023	3669.500790101244	380.9185626961277	589.0808216945644	3649.2379753980977	407.72691313460354	613.0011017584327	3680.7617154083823	399.3578661745264	581.3156350328841	3621.5898685901093	335.79038834632735	-22.712758483285562	3472.9778832735483	748.4548993685036	226.07080834617986	3439.8516746303817	820.4773156824192	476.98382611638397	3415.4004129260493	813.6034070751324	577.7282787540972	3376.875617104949	746.0532540660432	592.0800548759628	3391.0527645196685	795.6727077424894	587.5711426984567	3350.686976739272	804.687112084072
273	4.55	456.9758999092521	3655.1838019364664	538.7911824564445	846.830291330417	3686.0487161303977	536.7360703879349	1265.7674168269302	3796.7149997924475	630.8075765011133	1317.848491962105	3610.0242123029184	555.5283886754955	1317.717439720934	3695.458804051133	524.8115102533296	1289.0801359997968	3755.8836837397826	628.049497450659	453.04227137276064	3533.259949692643	731.4962051878924	869.6177508901073	3562.309797709173	738.6051518856341	1236.337277881177	3605.9865071583968	725.657769479602	1308.73762525761	3505.909476988784	660.4916594671741	1271.0580464069521	3444.628930269363	698.9693529215147	1274.7558151695405	3620.18106331762	712.7938723747317	-104.62132472937624	3510.8465350134707	604.307653089915	-358.96842684735066	3408.449906261853	535.4469840739567	-221.0364779508483	3387.261899393434	513.6564372197698	-33.98060690515374	3669.804551806288	474.9892199880747	194.46415028252096	3698.480181366154	421.78399897657937	441.7738176130746	3669.588407896061	381.03971236652677	584.8138455418078	3632.1271326578494	395.65947000196735	612.9760342261754	3680.205449349024	399.25513865876235	580.7944667825951	3620.3444382180305	335.3681206145559	-22.78052441913026	3472.9292228085283	748.429528638247	226.03894374776107	3440.0527374325675	820.606584431574	476.9952969836725	3415.4519231735453	813.6323125664684	577.5838888481703	3376.8929288957534	745.9154360921771	591.9631445903152	3391.097238085206	795.4824928362401	587.6524551075863	3350.643147722251	804.6561099129602
274	4.566666666666666	464.74191731322225	3645.3865220175676	533.8357242087167	851.4122939815506	3683.1861479687395	533.7914220273173	1265.7725862335374	3796.446806036156	630.6902844387654	1321.641035874705	3611.2269069365375	551.668309559778	1310.3084517471148	3676.2230387572195	515.728226010237	1289.3867138286032	3755.676828674657	627.796980481855	455.33275164884185	3523.4227481428566	725.6023068024631	872.9516367200853	3557.744455512689	736.0466753148103	1238.962353653577	3600.8017215562863	723.0191546515829	1316.1535659557574	3498.8498217287865	662.7342901548996	1273.687139066129	3439.8464221634813	696.260971951115	1275.0545442453356	3617.165208667608	716.7958431599718	-104.66811742488034	3510.7813898868976	604.2751298608936	-358.8768923327376	3408.572826570653	535.5440485439583	-220.99071637103472	3387.347265954555	513.6049707200361	-33.99116914957785	3669.6708432850414	474.9259600462529	194.614042618901	3698.7000860578482	421.73129682142456	441.76192224417343	3669.2212482055734	380.7798085297093	579.0971524715816	3629.804941848941	394.3406214632784	607.9653536818741	3678.1026684133017	397.91373314414585	580.7467424747026	3620.011964114877	335.3137764370888	-26.9940795455787	3476.7777088605917	750.5579410193176	226.09984150479673	3439.9785069117165	820.554127870003	477.0092655715671	3415.3849741299664	813.6192858326119	574.250726481031	3364.8022573191884	733.7885928424855	591.9146277768104	3390.933036410909	795.2948384471606	587.7387261013532	3350.8751657447124	804.7591254840742
275	4.583333333333333	455.66887257610654	3648.520243391244	535.2446112565328	838.8710103973318	3676.282094226902	530.7543522058146	1259.4483750045931	3792.100791135343	629.6111354847025	1313.9230384276204	3595.8565813566556	538.6304401880153	1323.098423439848	3698.3911400374	521.7450260502148	1296.7884814484582	3777.6495066568127	633.3408241156554	448.76978809346946	3507.312769256012	721.9555631412252	857.9906713218903	3556.5129808132483	736.1320162217028	1232.3900787137934	3596.7679218031244	722.1157909497476	1311.8664149573215	3514.026962783335	666.1327892031842	1270.9226185538287	3441.9474235259204	702.8733658240346	1274.8789663257198	3617.1142433542927	716.6873026103236	-104.6713697999194	3510.8773885680625	604.3591230981875	-358.91728478088856	3408.299563648626	535.3314797227971	-221.03158029675967	3387.087520917707	513.4244185952044	-33.299089365555375	3686.4799076027452	488.24704125375104	194.52088620774776	3700.779964910732	417.6329624578756	441.74901256100003	3669.232167041739	380.84717897402027	584.8312482716252	3631.9103732088856	395.5355675178212	608.1841775861286	3678.11040902619	398.07415345458395	580.4091510837077	3620.8319169820975	330.0685398178847	-27.815813967793186	3462.3587290714745	737.1240494843038	226.01105507345463	3439.766680879725	820.5186467287218	476.9904266338859	3415.290706699987	813.6588163607565	570.9802180708	3363.892922999057	732.9827144352904	591.9492121804318	3391.153935114284	795.6549493850443	587.6348013666462	3350.5503065836187	804.6211366470847
276	4.6	455.5777074380193	3648.4563782067758	535.2150596388178	835.7220930025833	3681.5061031786117	533.3605055026305	1259.490718050512	3792.2254370220026	629.613319401969	1314.0833420621248	3596.1669945751387	538.7417546125198	1323.676778722143	3697.499424684544	526.503152433221	1296.8088917977823	3777.9088130360797	633.5109635107938	451.44740717263267	3527.4321370443286	727.8620609694298	864.5035729962273	3560.822200446946	737.4641330687268	1238.7696675990126	3600.4998811660535	722.8530986724724	1310.9799239130682	3500.9511278696773	657.9419439856298	1271.0900772339596	3444.303914270269	698.8748519713355	1274.8485984871713	3617.1723391862192	716.8483643483985	-104.7606176549689	3510.857084181921	604.3468027836033	-358.9519157159014	3408.2856588808795	535.2676267984632	-225.40142141394912	3383.8037769831503	511.972555636226	-33.28627232351645	3686.55715079843	488.32753696951136	199.23170826817693	3702.080688849588	422.718619210103	441.9298207386493	3667.6368277780816	385.1230359279973	584.851156643091	3631.8745186937176	395.4716287326381	608.9246649610327	3664.0046408654684	387.54974816079704	575.2168701397652	3615.8310480849664	334.10963851154804	-27.856530031428715	3462.3313414335903	737.089478697027	225.9669337101693	3439.8300120550985	820.5261798349331	472.8315921315798	3413.929362864032	812.5535869758863	570.1222852375371	3362.6223385810736	726.3718439787594	591.5233779422692	3392.066495278193	790.0683797402929	587.7219051062176	3350.6590869863726	804.6286819171254
277	4.616666666666666	450.06017692844983	3644.1122623000088	533.7130107964189	838.3301527910542	3675.5258573457977	530.371512181529	1265.3620646275112	3794.3613004800904	631.2708895863225	1302.0040876125038	3590.928185354331	536.4692521394294	1316.9032870861133	3695.959136716187	519.7688501371664	1297.05595799497	3777.9837915377234	633.3529598336	451.4960179077213	3527.2747169210243	727.7050423856249	858.1874002919692	3556.7237278722964	736.3166797212012	1238.6048641848545	3597.6432980507875	726.8286952706707	1331.4982213022483	3534.6870945420374	682.2497554564867	1280.4646493079076	3451.2230464740496	713.218225117831	1275.3218201037926	3616.439454995924	716.1641774163191	-109.25187437067012	3509.3103390007636	603.6965653384268	-359.08657696682627	3408.6288526963626	535.3518620521751	-225.463547564431	3384.0601169215015	512.1104398230905	-28.9347702549686	3673.6941608578118	476.29932844975883	199.2592919781445	3704.0299447596303	418.3375171411882	441.90733774515235	3667.6368519898156	385.1179765232513	584.8164540397382	3631.404961884548	395.4033439833316	609.1344379326579	3664.081424936465	387.60493037498674	580.3004658779388	3620.3605746067155	329.8214326510825	-22.832719744131182	3473.0026534331278	748.4788938885843	225.90845081910908	3439.706250822384	820.4486520796532	472.62264252475586	3415.203952615853	807.6912494980232	570.99796338931	3363.921763879147	732.9431777505646	591.9658265966422	3391.1981397511245	795.5195869839271	587.6064348565461	3350.3811241377402	804.5549486808069
278	4.633333333333334	450.1752519446518	3644.125590960388	533.7628053173767	844.4593700124636	3678.0548186626797	532.2965253594108	1265.7372569562751	3794.510644188521	631.4806170382498	1322.536945016203	3616.6446300395864	549.0019401565614	1323.6116707763688	3697.209389140647	526.1440525467564	1289.4032538976182	3755.8208723041603	627.9328607432359	451.57679130860873	3525.558931920901	731.8472262519971	863.3239571720533	3558.4084320741604	737.7199971885769	1236.5970873872816	3605.942884235015	725.8373427907167	1316.4025016877756	3499.3840851693267	662.9481464766034	1278.1179080230077	3455.954456875342	715.9180306272259	1275.0876211826917	3617.1465827820516	716.7999942479679	-109.2746772132924	3509.3049570658395	603.6969170778397	-359.11888312766035	3408.4360526709447	535.0542037671661	-225.41694407011389	3384.0554685074467	512.0930109138147	-34.01968474675359	3669.6932354932524	474.7801196831961	199.2081837737054	3704.0428640334158	418.3808495433043	441.9349322060838	3667.605639986057	385.11611917601084	584.8811292505034	3631.5796344472296	395.4912967397931	609.2751620878932	3664.417113333414	387.72689510662866	583.6970895840178	3615.7184911873082	327.6588683203484	-22.79447094052139	3472.9612397126716	748.4453242734882	225.82855742992027	3439.617335388944	820.4301473198469	476.8012659797086	3416.4984020692214	808.7141368904959	570.9648166869623	3363.6813328528833	732.8260057476176	592.0077227750153	3390.8111729943435	795.4396457888276	587.54994004726	3350.1998692539782	804.4881787225867
